<?xml version="1.0" encoding="UTF-8"?><svg xmlns="http://www.w3.org/2000/svg" viewBox="0 0 76.8 44.83"><defs><style>.g{fill:white;}</style></defs><g id="a"/><g id="b"><g id="c"><g><g><g><g id="d"><path class="g" d="M15.02,24.47c-4.9,0-9.54-5.86-9.54-12.07C5.48,6.6,9.49,2.39,15.02,2.39s9.54,4.22,9.54,10.02-4.73,12.07-9.54,12.07Zm0-19.34c-4,0-6.8,2.99-6.8,7.28,0,4.7,3.37,9.32,6.8,9.32s6.8-4.79,6.8-9.32c0-4.29-2.8-7.28-6.8-7.28Z"/></g><path class="g" d="M16.13,39.11c-10.18,0-14.91-2.57-15.93-8.34-.72-4.09,.52-7.62,3.5-9.96,1.49-1.17,3.13-2.1,4.86-2.75,.71-.27,1.5,.09,1.76,.8,.27,.71-.09,1.5-.8,1.76-1.46,.55-2.85,1.33-4.12,2.33-2.18,1.71-3.04,4.24-2.5,7.33,.66,3.75,3.47,7.04,19.4,5.81,.77-.06,1.41,.51,1.47,1.26,.06,.76-.51,1.41-1.26,1.47-2.33,.18-4.46,.27-6.39,.27Z"/><path class="g" d="M26.2,23.91c-.35,0-.7-.13-.97-.4-.36-.31-2.82-2.14-4.43-2.7-.72-.25-1.09-1.03-.85-1.74,.25-.72,1.03-1.09,1.75-.85,2.24,.78,5.2,3.09,5.47,3.36,.54,.54,.54,1.4,0,1.94-.27,.27-.62,.4-.97,.4Z"/></g><g><g id="e"><path class="g" d="M61.79,24.47c-4.82,0-9.54-5.98-9.54-12.07s4.01-10.02,9.54-10.02,9.54,4.22,9.54,10.02c0,6.2-4.64,12.07-9.54,12.07Zm0-19.34c-4,0-6.8,2.99-6.8,7.28,0,4.53,3.49,9.32,6.8,9.32s6.8-4.62,6.8-9.32c0-4.29-2.8-7.28-6.8-7.28Z"/></g><path class="g" d="M60.66,39.11c-1.89,0-3.97-.09-6.25-.26-.76-.06-1.32-.72-1.26-1.47,.06-.76,.7-1.32,1.47-1.26,15.86,1.21,18.64-2.09,19.29-5.83,.38-2.16,.26-5.18-2.48-7.33-1.26-1-2.66-1.78-4.14-2.34-.71-.26-1.07-1.06-.8-1.76,.27-.71,1.06-1.07,1.77-.8,1.75,.65,3.39,1.58,4.87,2.75,2.97,2.33,4.21,5.86,3.49,9.96-1.01,5.78-5.74,8.35-15.94,8.35Z"/><path class="g" d="M50.54,23.94c-.37,0-.73-.14-1-.43-.5-.54-.5-1.37,.02-1.89,.28-.28,3.31-2.65,5.63-3.46,.71-.25,1.5,.13,1.74,.85,.25,.72-.13,1.5-.85,1.75-1.68,.58-4.22,2.48-4.63,2.84-.26,.23-.59,.34-.92,.34Z"/></g></g><g><g id="f"><path class="g" d="M38.4,26.22c-5.8,0-11.29-6.97-11.29-14.35,0-6.88,4.75-11.87,11.29-11.87s11.29,4.99,11.29,11.87c0,7.24-5.59,14.35-11.29,14.35Zm0-23.48c-5.03,0-8.55,3.75-8.55,9.13,0,5.86,4.23,11.61,8.55,11.61s8.55-5.97,8.55-11.61-3.51-9.13-8.55-9.13Z"/></g><path class="g" d="M38.5,44.83c-2.87,0-5.72-.21-8.54-.61-2.37-.34-4.56-1.37-6.33-2.98-1.77-1.61-3-3.69-3.56-6.01l-.12-.49c-1.09-4.53,.57-9.31,4.23-12.17,1.83-1.43,3.84-2.57,5.97-3.37,.71-.27,1.5,.09,1.77,.8,.27,.71-.09,1.5-.8,1.77-1.87,.7-3.63,1.7-5.24,2.96-2.82,2.2-4.09,5.88-3.25,9.37l.12,.49c.43,1.79,1.38,3.39,2.74,4.62,1.37,1.24,3.05,2.04,4.87,2.3,5.11,.74,10.33,.78,15.51,.12l.57-.08c4.18-.53,7.44-3.82,7.94-8,.38-3.16-.94-6.34-3.45-8.31l-.65-.51c-1.51-1.19-3.18-2.15-4.96-2.85-.71-.28-1.05-1.07-.77-1.78,.28-.7,1.07-1.05,1.78-.77,2.03,.8,3.93,1.89,5.65,3.25l.64,.51c3.25,2.55,4.97,6.68,4.47,10.79-.65,5.43-4.88,9.7-10.3,10.39l-.57,.08c-2.58,.33-5.16,.5-7.73,.5Z"/></g></g></g></g></svg>