<svg width="56" height="51" viewBox="0 0 56 51" fill="none" xmlns="http://www.w3.org/2000/svg">
<path d="M53.8315 50.3025C47.9126 50.3025 41.9937 50.3025 36.0748 50.3025C34.8055 49.8443 34.3633 48.9804 34.4204 47.7501C34.4917 46.2186 34.4347 44.6741 34.4347 43.1426C34.4347 42.9725 34.4347 42.7892 34.4347 42.606C30.213 42.606 26.0484 42.606 21.8695 42.606C21.8695 42.8285 21.8695 43.0117 21.8695 43.1819C21.8695 44.8704 21.8695 46.5458 21.8695 48.2344C21.8695 48.9019 21.627 49.4517 21.0565 49.8574C20.8141 50.0276 20.5146 50.1454 20.2436 50.2894C14.3247 50.2894 8.40577 50.2894 2.48688 50.2894C1.61687 50.0407 1.04638 49.5171 0.775391 48.7187C0.775391 43.2866 0.775391 37.8545 0.775391 32.4225C1.26031 31.2837 2.18737 30.891 3.49951 30.9041C8.44856 30.9434 13.4119 30.9303 18.3609 30.9041C18.6319 30.9041 18.9599 30.7863 19.1454 30.6162C24.1515 26.048 29.1433 21.4667 34.1209 16.8855C34.3063 16.7153 34.4204 16.4143 34.4347 16.1656C34.4632 15.0923 34.4489 14.0058 34.4489 12.9325C34.4489 12.5268 34.4489 12.121 34.4489 11.7021C30.2272 11.7021 26.0911 11.7021 21.8837 11.7021C21.8837 11.9116 21.8837 12.0817 21.8837 12.2519C21.8837 13.8357 21.8267 15.4326 21.898 17.0164C21.9693 18.5478 20.8996 19.4117 19.3308 19.3986C14.0537 19.3463 8.7766 19.3594 3.51377 19.3986C2.20163 19.4117 1.27457 19.0321 0.789653 17.8803C0.789653 12.4482 0.789653 7.01616 0.789653 1.5841C1.21753 0.406065 2.13032 -0.0127929 3.45672 0.000296355C8.80512 0.0395642 14.1535 0.0133857 19.5019 0.0133857C21.0137 0.0526536 21.8695 0.811833 21.8695 2.22548C21.8695 3.88782 21.8695 5.56325 21.8695 7.22559C21.8695 7.39575 21.8837 7.56591 21.898 7.73607C26.1054 7.73607 30.2558 7.73607 34.4347 7.73607C34.4347 7.51355 34.4347 7.34339 34.4347 7.16014C34.4347 5.53707 34.4347 3.92709 34.4347 2.30401C34.4347 0.785654 35.2476 0.0395644 36.8878 0.0395644C42.2647 0.0395644 47.6559 0.0395644 53.0328 0.0395644C54.7015 0.0395644 55.5287 0.785654 55.5287 2.3171C55.5287 7.23868 55.5287 12.1603 55.5287 17.0949C55.5287 18.6656 54.73 19.3986 53.0186 19.3986C47.9982 19.3986 42.9636 19.3986 37.9432 19.4117C37.6722 19.4117 37.3442 19.5295 37.1588 19.6997C32.1527 24.2679 27.1608 28.8491 22.1833 33.4434C22.0121 33.6005 21.8837 33.8885 21.8837 34.1241C21.8552 35.4592 21.8695 36.8074 21.8695 38.1425C21.8695 38.2996 21.8837 38.4567 21.898 38.6006C26.1054 38.6006 30.2558 38.6006 34.4347 38.6006C34.4347 38.3912 34.4347 38.208 34.4347 38.0378C34.4347 36.4147 34.4347 34.8047 34.4347 33.1817C34.4347 31.6895 35.2333 30.9434 36.845 30.9434C42.2647 30.9434 47.6844 30.9434 53.1041 30.9434C54.7015 30.9434 55.5287 31.7026 55.5287 33.1817C55.5287 38.0771 55.5145 42.9594 55.543 47.8548C55.5573 49.0721 55.1009 49.9098 53.8315 50.3025ZM17.5622 4.00562C13.3691 4.00562 9.21873 4.00562 5.08263 4.00562C5.08263 7.84078 5.08263 11.6367 5.08263 15.4588C9.24726 15.4588 13.3976 15.4588 17.5622 15.4588C17.5622 11.6236 17.5622 7.8277 17.5622 4.00562ZM51.2215 15.4588C51.2215 11.6105 51.2215 7.80152 51.2215 4.00562C47.0426 4.00562 42.9065 4.00562 38.7419 4.00562C38.7419 7.8277 38.7419 11.6367 38.7419 15.4588C42.9208 15.4588 47.0569 15.4588 51.2215 15.4588ZM5.06837 46.3495C9.26152 46.3495 13.4119 46.3495 17.5622 46.3495C17.5622 42.5274 17.5622 38.7184 17.5622 34.9095C13.3834 34.9095 9.23299 34.9095 5.06837 34.9095C5.06837 38.7446 5.06837 42.5274 5.06837 46.3495ZM51.2358 46.3626C51.2358 42.5143 51.2358 38.7184 51.2358 34.9095C47.0569 34.9095 42.9065 34.9095 38.7704 34.9095C38.7704 38.7446 38.7704 42.5536 38.7704 46.3626C42.9208 46.3626 47.0569 46.3626 51.2358 46.3626Z" fill="white"/>
<path d="M18.0616 34.2427H3.41406L3.41406 47.6852H18.0616V34.2427Z" fill="white"/>
<path d="M51.7207 2.99658L37.0732 2.99658V16.4378H51.7207V2.99658Z" fill="white"/>
</svg>
