<svg width="61" height="55" viewBox="0 0 61 55" fill="none" xmlns="http://www.w3.org/2000/svg">
<path d="M23.0488 0C28.0587 0 33.0685 0 38.0783 0C38.0937 1.14136 38.1246 2.28272 38.1246 3.42407C38.1246 3.71998 38.217 3.83271 38.5408 3.94543C39.9435 4.43861 41.3308 4.95997 42.6874 5.50952C43.0573 5.66452 43.2731 5.66452 43.566 5.3827C44.3984 4.57952 45.2616 3.81862 46.017 3.11407C49.624 6.39724 53.1695 9.65222 56.7457 12.9213C55.9441 13.6399 55.1117 14.4149 54.2485 15.1758C53.971 15.4154 53.9248 15.5845 54.0944 15.9226C54.7109 17.1485 55.2659 18.4026 55.79 19.6708C55.9441 20.0372 56.1291 20.1499 56.5299 20.1358C57.7168 20.1076 58.9038 20.1217 60.1216 20.1217C60.1216 24.7576 60.1216 29.323 60.1216 33.9589C58.9038 33.9589 57.7168 33.973 56.5299 33.9448C56.1291 33.9307 55.9441 34.0435 55.79 34.4098C55.2659 35.678 54.6955 36.9321 54.0944 38.158C53.9248 38.5103 53.971 38.6793 54.2485 38.9189C55.1117 39.6798 55.9596 40.4689 56.7457 41.1875C53.154 44.4707 49.5932 47.7116 46.017 50.9947C45.2 50.2338 44.3213 49.4447 43.4735 48.6275C43.2423 48.402 43.0727 48.4161 42.7798 48.5288C41.4079 49.0784 40.0206 49.6138 38.6332 50.107C38.2325 50.2479 38.1091 50.4029 38.1091 50.7693C38.1246 51.8825 38.0783 52.9815 38.0629 54.0947C33.0531 54.0947 28.0432 54.0947 23.0334 54.0947C23.018 52.9815 22.9717 51.8825 22.9872 50.7693C22.9872 50.3888 22.8638 50.2338 22.4631 50.0929C21.1066 49.6138 19.75 49.1066 18.409 48.5711C18.0236 48.4161 17.8232 48.4161 17.5303 48.6979C16.6979 49.5011 15.8347 50.262 14.9869 51.037C11.3644 47.7679 7.78811 44.5552 4.18104 41.3002C5.15217 40.4125 6.03082 39.6093 6.90947 38.8343C7.1561 38.623 7.14069 38.468 7.01737 38.2003C6.41619 36.9462 5.83043 35.678 5.29091 34.4098C5.13676 34.0576 4.96719 33.9307 4.55099 33.9307C3.33322 33.9448 2.13086 33.9026 0.913086 33.8885C0.913086 29.3089 0.913086 24.7294 0.913086 20.1499C2.14627 20.1358 3.37946 20.1076 4.59724 20.1076C4.96719 20.1076 5.10593 19.9949 5.24466 19.6849C5.78418 18.4026 6.35453 17.1485 6.97113 15.8945C7.12527 15.5845 7.12527 15.4154 6.84781 15.1758C5.96916 14.4008 5.10593 13.5977 4.30435 12.879C7.97309 9.62404 11.5185 6.38315 15.0948 3.11407C15.9117 3.87498 16.7904 4.66407 17.6382 5.48134C17.8694 5.70679 18.039 5.6927 18.3319 5.57997C19.7038 5.03043 21.0911 4.49498 22.4785 4.0018C22.8638 3.86089 23.0026 3.70589 23.0026 3.32544C22.9872 2.21226 23.0334 1.11318 23.0488 0ZM51.8746 12.9354C49.8861 11.1177 47.9746 9.37041 45.9707 7.5386C45.2462 8.22905 44.4755 8.97586 43.6893 9.72268C41.0226 8.05996 38.1246 6.96087 34.9953 6.35497C34.6408 6.28451 34.6408 6.10133 34.6408 5.86179C34.6408 4.97407 34.6408 4.08634 34.6408 3.18453C31.8661 3.18453 29.1685 3.18453 26.4401 3.18453C26.4401 4.07225 26.4093 4.94588 26.4555 5.80543C26.4709 6.18588 26.3168 6.32679 25.9314 6.41133C24.9757 6.62269 24.0045 6.79178 23.0951 7.12996C21.1528 7.87678 19.2568 8.72223 17.1758 9.59586C16.5438 9.00405 15.773 8.25723 15.0639 7.59496C13.1062 9.3845 11.1948 11.1318 9.20628 12.9636C9.94619 13.6258 10.7478 14.3304 11.5802 15.049C9.79204 17.4726 8.57427 20.0935 7.92685 22.9399C7.84977 23.264 7.66479 23.3062 7.3565 23.3062C6.40078 23.2922 5.44505 23.3062 4.4585 23.3062C4.4585 25.8285 4.4585 28.2944 4.4585 30.8026C5.42964 30.8026 6.35453 30.8167 7.27942 30.7885C7.71104 30.7744 7.86519 30.9012 7.98851 31.2817C8.42012 32.6485 8.82091 34.0294 9.40667 35.3398C9.99244 36.6362 10.794 37.848 11.5339 39.1443C10.794 39.8066 9.97702 40.5112 9.2217 41.1875C11.1948 43.0052 13.1062 44.7525 15.1102 46.5702C15.8655 45.8657 16.6517 45.133 17.4532 44.3861C20.1046 46.0207 22.9563 47.1198 26.0393 47.7116C26.4093 47.782 26.4863 47.9511 26.4709 48.2611C26.4555 49.1348 26.4709 50.0084 26.4709 50.8961C29.2456 50.8961 31.9432 50.8961 34.6716 50.8961C34.6716 50.0084 34.7025 49.1629 34.6562 48.3175C34.6408 47.9229 34.7949 47.782 35.2111 47.6834C36.3981 47.4016 37.6159 47.1479 38.7411 46.7111C40.4522 46.0489 42.1016 45.2457 43.8743 44.4707C44.5526 45.1189 45.3233 45.8516 46.0478 46.542C48.0209 44.7384 49.9323 42.9911 51.9054 41.1875C51.1347 40.5112 50.3331 39.8066 49.547 39.1162C49.5932 39.0175 49.6086 38.9612 49.6395 38.9189C51.3351 36.5375 52.5375 33.9589 53.1849 31.183C53.2619 30.8871 53.4007 30.7885 53.7244 30.7885C54.6955 30.8026 55.6821 30.7885 56.6686 30.7885C56.6686 28.2662 56.6686 25.8003 56.6686 23.2922C55.7283 23.2922 54.8343 23.264 53.9248 23.3062C53.4315 23.3203 53.2157 23.1794 53.1232 22.7285C52.707 20.8967 52.0442 19.1354 51.1039 17.4726C50.626 16.6413 50.0865 15.824 49.5624 14.9786C50.3331 14.2881 51.1193 13.5977 51.8746 12.9354Z" fill="white"/>
<path d="M50.7951 27.0666C50.7797 37.2542 41.7004 45.5536 30.5554 45.5536C19.3951 45.5536 10.3003 37.2119 10.3311 27.0243C10.362 16.8227 19.4567 8.53732 30.5863 8.5655C41.7312 8.57959 50.7951 16.879 50.7951 27.0666ZM30.5092 42.3832C39.7427 42.4114 47.296 35.5492 47.3268 27.1089C47.3576 18.6685 39.8506 11.7641 30.6171 11.7359C21.3836 11.7077 13.8303 18.5699 13.7995 27.0102C13.7686 35.4506 21.2757 42.355 30.5092 42.3832Z" fill="white"/>
<path d="M30.309 37.8188C29.1375 37.6215 28.0585 37.4524 26.9023 37.2692C28.2434 30.2804 29.5999 23.3198 30.9564 16.3027C32.0971 16.4859 33.207 16.6691 34.3785 16.8523C33.0066 23.8552 31.6655 30.8158 30.309 37.8188Z" fill="white"/>
<path d="M24.698 24.8417C23.7269 25.7151 22.7095 26.6448 21.6767 27.5886C22.7557 28.5465 23.7885 29.4762 24.8059 30.3636C23.9119 31.1806 23.1257 31.9131 22.355 32.6034C20.5514 30.9553 18.7325 29.279 16.9443 27.6449C18.717 26.025 20.5514 24.3487 22.3704 22.6865C23.0949 23.3627 23.8964 24.0952 24.698 24.8417Z" fill="white"/>
<path d="M38.7106 32.592C37.9707 31.9157 37.1845 31.1971 36.3675 30.4644C37.3695 29.5485 38.4023 28.6185 39.4043 27.7168C38.3406 26.7445 37.3078 25.8146 36.3213 24.9128C37.2154 24.0956 38.0015 23.3629 38.7568 22.6865C40.545 24.321 42.3793 25.9977 44.1521 27.6322C42.3948 29.2244 40.5604 30.9152 38.7106 32.592Z" fill="white"/>
</svg>
