<svg width="70" height="55" viewBox="0 0 70 55" fill="none" xmlns="http://www.w3.org/2000/svg">
<path d="M69.1519 47.4668C69.1047 47.5593 69.0497 47.6446 69.0183 47.7371C68.4525 49.4728 66.9437 50.5113 64.924 50.5184C61.152 50.5256 57.3721 50.5184 53.6001 50.5184C53.3565 50.5184 53.1128 50.5184 52.8928 50.5184C52.7278 50.995 52.6335 51.4361 52.4292 51.8415C51.604 53.4705 50.1817 54.4023 48.2092 54.4095C39.172 54.445 30.127 54.4308 21.0898 54.4166C18.9209 54.4095 17.027 53.0579 16.5791 51.1373C16.5319 50.9381 16.4769 50.7532 16.4141 50.5256C16.1547 50.5256 15.9111 50.5256 15.6596 50.5256C11.8876 50.5256 8.10771 50.5327 4.33567 50.5256C1.78955 50.5256 0.131422 49.0104 0.131422 46.6986C0.131422 42.3878 0.123564 38.0771 0.131422 33.7664C0.139281 29.0574 4.14707 25.4082 9.34148 25.4011C10.9525 25.4011 12.5949 25.3442 14.1744 25.5789C16.9091 25.9915 18.968 27.4213 20.3747 29.598C20.4769 29.7545 20.5712 29.911 20.6812 30.0746C20.689 30.0888 20.7205 30.0888 20.7519 30.103C21.4199 29.5766 22.0643 29.0076 22.7637 28.5167C25.6634 26.4752 28.9561 25.4082 32.626 25.4153C34.9599 25.4224 37.3174 25.4011 39.6121 25.6999C42.8969 26.1338 45.6866 27.6062 48.052 29.726C48.1935 29.8541 48.3192 29.9963 48.5 30.1884C48.6335 30.0034 48.7279 29.8754 48.8064 29.7474C50.606 26.9589 53.2779 25.4651 56.8534 25.4153C58.5509 25.394 60.2954 25.3442 61.9536 25.6287C65.7099 26.2831 68.3582 28.9009 69.034 32.3224C69.0969 32.6069 69.1519 32.8915 69.1519 33.1831V47.4668V47.4668ZM34.6141 50.7603C38.9913 50.7603 43.3684 50.7603 47.7456 50.7603C48.5707 50.7603 48.7907 50.5896 48.7907 49.9067C48.7907 46.5349 48.83 43.1561 48.775 39.7843C48.6886 34.7481 44.4922 30.1813 39.0149 29.3134C37.0031 28.9933 34.9049 29.0503 32.846 29.0503C25.9227 29.0431 20.5083 33.9585 20.4847 40.2254C20.4769 43.3979 20.4847 46.5705 20.4847 49.736C20.4847 50.2979 20.9877 50.7603 21.6163 50.7603C25.9463 50.7603 30.2842 50.7603 34.6141 50.7603ZM16.4455 46.8337C16.4455 44.4721 16.3669 42.1673 16.4769 39.8768C16.5476 38.5111 16.9249 37.1595 17.1527 35.7937C17.2785 35.0397 17.4985 34.2857 17.4907 33.5317C17.4828 31.3692 15.7697 29.4984 13.4043 29.1641C12.1548 28.9862 10.8582 29.0431 9.57723 29.0431C6.32385 29.036 4.17851 30.9851 4.17065 33.9229C4.17065 38.006 4.17065 42.0962 4.17065 46.1793C4.17065 46.3927 4.17065 46.6061 4.17065 46.8337H16.4455V46.8337ZM65.0969 46.8266C65.0969 42.2669 65.1441 37.7713 65.0734 33.2827C65.0419 31.2696 63.2738 29.4984 61.0656 29.1712C59.8789 29.0005 58.653 29.0503 57.4428 29.0431C56.822 29.0431 56.1698 29.0503 55.5725 29.1996C52.7042 29.8967 51.1404 32.3935 51.9498 35.3527C52.2327 36.3913 52.6256 37.4369 52.6885 38.4968C52.8299 41.0505 52.8064 43.6113 52.8457 46.1722C52.8457 46.3856 52.8457 46.599 52.8457 46.8266H65.0969Z" fill="white"/>
<path d="M34.6615 7.98819e-06C41.1369 0.00712143 46.3863 4.79447 46.3627 10.6702C46.3391 16.4961 41.0583 21.2407 34.6065 21.2336C28.1391 21.2265 22.8818 16.4321 22.9054 10.5635C22.9368 4.73756 28.2098 -0.00710545 34.6615 7.98819e-06ZM26.9603 10.6133C26.9603 14.4332 30.4101 17.5631 34.6222 17.5702C38.8422 17.5773 42.3078 14.4616 42.3235 10.6488C42.3392 6.80046 38.8736 3.65632 34.6301 3.66343C30.4101 3.67054 26.9603 6.79334 26.9603 10.6133Z" fill="white"/>
<path d="M10.9213 21.2311C6.85063 21.2382 3.50294 18.2151 3.50294 14.5304C3.49509 10.8386 6.82706 7.81544 10.9056 7.81544C14.9841 7.80833 18.3239 10.8244 18.3239 14.5162C18.3318 18.2008 14.9998 21.224 10.9213 21.2311ZM10.8899 17.5677C12.7523 17.582 14.2768 16.2091 14.2847 14.5233C14.2926 12.8659 12.8073 11.493 10.9763 11.4646C9.11385 11.4361 7.56575 12.7947 7.55003 14.4735C7.52645 16.1664 9.02741 17.5606 10.8899 17.5677Z" fill="white"/>
<path d="M58.299 21.2309C54.2283 21.2024 50.92 18.158 50.9514 14.4664C50.9828 10.7818 54.3462 7.78718 58.4247 7.81563C62.4954 7.84408 65.8038 10.8885 65.7723 14.5802C65.7488 18.2647 62.3854 21.2593 58.299 21.2309ZM58.3933 17.5677C60.2479 17.5534 61.7567 16.1593 61.7331 14.4735C61.7095 12.8161 60.2007 11.4718 58.3697 11.4646C56.5073 11.4646 54.9906 12.8375 54.9985 14.5233C55.0063 16.2091 56.5309 17.5819 58.3933 17.5677Z" fill="white"/>
</svg>
