<?xml version="1.0" encoding="UTF-8"?><svg xmlns="http://www.w3.org/2000/svg" viewBox="0 0 60.5 73.23"><defs><style>.d{fill:white;}</style></defs><g id="a"/><g id="b"><g id="c"><g><path class="d" d="M46.58,73.23h-12.19c-.81,0-1.46-.66-1.46-1.46s.66-1.46,1.46-1.46h12.19c.81,0,1.46,.66,1.46,1.46s-.66,1.46-1.46,1.46Z"/><path class="d" d="M59.03,68.74c-.81,0-1.46-.66-1.46-1.46V13.61L46.45,3.44l-11.42,10.18v7.22c0,.81-.66,1.46-1.46,1.46s-1.46-.66-1.46-1.46v-7.87c0-.42,.18-.82,.49-1.09L45.49,.37c.56-.5,1.41-.5,1.96,.01l12.56,11.5c.3,.28,.48,.67,.48,1.08v54.31c0,.81-.65,1.46-1.46,1.46Z"/><path class="d" d="M10.68,73.23c-.81,0-1.46-.66-1.46-1.46v-23.93H2.93v19.43c0,.81-.66,1.46-1.46,1.46s-1.46-.66-1.46-1.46v-20.9c0-.81,.66-1.46,1.46-1.46H10.68c.81,0,1.46,.66,1.46,1.46v25.39c0,.81-.66,1.46-1.46,1.46Z"/><path class="d" d="M19.9,73.23H10.68c-.81,0-1.46-.66-1.46-1.46V35.7c0-.81,.66-1.46,1.46-1.46h9.22c.81,0,1.46,.66,1.46,1.46v36.07c0,.81-.66,1.46-1.46,1.46Zm-7.75-2.93h6.29V37.16h-6.29v33.14Z"/><path class="d" d="M29.11,73.23h-9.22c-.81,0-1.46-.66-1.46-1.46V39.63c0-.81,.66-1.46,1.46-1.46h9.22c.81,0,1.46,.66,1.46,1.46v32.14c0,.81-.66,1.46-1.46,1.46Zm-7.75-2.93h6.29v-29.21h-6.29v29.21Z"/><path class="d" d="M38.33,73.23h-9.22c-.81,0-1.46-.66-1.46-1.46V27.18c0-.81,.66-1.46,1.46-1.46h9.22c.81,0,1.46,.66,1.46,1.46v44.59c0,.81-.66,1.46-1.46,1.46Zm-7.75-2.93h6.29V28.65h-6.29v41.66Z"/><path class="d" d="M47.54,73.23h-9.22c-.81,0-1.46-.66-1.46-1.46V33.08c0-.81,.66-1.46,1.46-1.46h9.22c.81,0,1.46,.66,1.46,1.46v38.69c0,.81-.66,1.46-1.46,1.46Zm-7.75-2.93h6.29V34.54h-6.29v35.76Z"/></g></g></g></svg>