<?xml version="1.0" encoding="UTF-8"?><svg xmlns="http://www.w3.org/2000/svg" viewBox="0 0 53 83.49"><defs><style>.d{fill:white;}</style></defs><g id="a"/><g id="b"><g id="c"><g><g><path class="d" d="M26.5,2.96c-.39,0-.77-.15-1.06-.45-.56-.59-.54-1.51,.05-2.07,.06-.06,.14-.12,.22-.18,.57-.4,1.36-.34,1.87,.17,.57,.57,.57,1.5,0,2.07-.07,.07-.16,.14-.26,.2-.25,.17-.54,.26-.83,.26Z"/><path class="d" d="M26.56,73.32c-.25,0-.51-.07-.74-.2l-5.38-3.13-5.96,.02c-.81-.01-1.44-.63-1.47-1.42l-.74-23.14c-.04-1.37,.61-2.7,1.81-3.65,.43-.34,.68-.85,.68-1.39,0-.59-.28-1.13-.76-1.46-1.25-.87-2-2.18-2.04-3.58l-.17-5.42c-.03-1.41,.74-2.68,2-3.33,.6-.31,.97-.92,.97-1.59,0-.33-.09-.66-.27-.94-.15-.24-.32-.41-.51-.54-1.33-.9-1.96-2.35-1.69-3.8C13.87,11.03,18.67,4.1,25.8,.21c.05-.03,.1-.05,.15-.07,.41-.17,.94-.17,1.32,.04,7.19,3.88,12,10.88,13.55,19.7,.25,1.38-.43,2.81-1.74,3.62-.52,.34-.83,.9-.83,1.52,0,.67,.36,1.27,.94,1.57,1.3,.67,2.08,1.96,2.04,3.37l-.18,5.43c-.05,1.39-.78,2.69-2.02,3.55-.48,.34-.76,.89-.76,1.47,0,.54,.24,1.04,.66,1.38,1.16,.94,1.8,2.26,1.76,3.62l-.8,23.14c-.03,.79-.67,1.41-1.46,1.41h-5.95l-5.14,3.15c-.23,.14-.5,.21-.76,.21Zm-5.73-6.26c.26,0,.51,.07,.74,.2l4.97,2.89,4.75-2.89c.23-.14,.49-.21,.76-.21h4.95l.75-21.74c.02-.59-.41-1.03-.67-1.24-1.11-.9-1.75-2.23-1.75-3.66,0-1.53,.75-2.98,2.01-3.87,.48-.34,.76-.79,.77-1.26l.18-5.43c.01-.31-.22-.55-.45-.67-1.56-.81-2.53-2.4-2.53-4.17,0-1.61,.82-3.11,2.19-3.99,.25-.16,.46-.4,.42-.63-.96-5.45-3.71-12.79-11.37-17.25-7.62,4.43-10.42,11.73-11.41,17.13-.08,.43,.27,.72,.42,.82,.54,.34,1.01,.84,1.39,1.44,.46,.74,.71,1.6,.71,2.49,0,1.76-.97,3.36-2.54,4.18-.27,.14-.43,.39-.42,.66l.17,5.4c.02,.47,.3,.94,.79,1.27,1.26,.88,2.02,2.33,2.02,3.87,0,1.44-.65,2.79-1.79,3.69-.27,.21-.71,.66-.7,1.26l.69,21.71h4.94Z"/></g><path class="d" d="M26.51,67.46c-.81,0-1.46-.66-1.46-1.46v-14.97c0-.81,.66-1.46,1.46-1.46s1.46,.66,1.46,1.46v14.97c0,.81-.66,1.46-1.46,1.46Z"/><g><path class="d" d="M36.02,26.48H17c-.81,0-1.46-.66-1.46-1.46s.66-1.46,1.46-1.46h19.03c.81,0,1.46,.66,1.46,1.46s-.66,1.46-1.46,1.46Z"/><path class="d" d="M35.58,41.9H17.43c-.81,0-1.46-.66-1.46-1.46s.66-1.46,1.46-1.46h18.15c.81,0,1.46,.66,1.46,1.46s-.66,1.46-1.46,1.46Z"/></g><g><path class="d" d="M14.1,68.58c-.06,0-.12,0-.18-.01l-12.63-1.57c-.4-.05-.77-.27-1.01-.59-.24-.33-.33-.74-.25-1.14,.08-.39,2.01-9.66,12.59-16.09,.69-.42,1.59-.2,2.01,.49,.42,.69,.2,1.59-.49,2.01-7,4.25-9.79,9.94-10.77,12.63l10.91,1.35c.8,.1,1.37,.83,1.27,1.63-.09,.74-.72,1.28-1.45,1.28Z"/><path class="d" d="M38.91,68.58c-.73,0-1.36-.54-1.45-1.28-.1-.8,.47-1.53,1.27-1.63l10.91-1.35c-.98-2.68-3.77-8.38-10.77-12.63-.69-.42-.91-1.32-.49-2.01,.42-.69,1.32-.91,2.01-.49,10.58,6.43,12.51,15.7,12.59,16.09,.08,.4-.01,.81-.25,1.14s-.6,.54-1.01,.59l-12.63,1.57c-.06,0-.12,.01-.18,.01Z"/></g><g><path class="d" d="M20.03,78.48c-.81,0-1.46-.66-1.46-1.46v-2.49c0-.81,.66-1.46,1.46-1.46s1.46,.66,1.46,1.46v2.49c0,.81-.66,1.46-1.46,1.46Z"/><path class="d" d="M32.97,78.48c-.81,0-1.46-.66-1.46-1.46v-2.49c0-.81,.66-1.46,1.46-1.46s1.46,.66,1.46,1.46v2.49c0,.81-.66,1.46-1.46,1.46Z"/></g><path class="d" d="M26.5,83.49c-.81,0-1.46-.66-1.46-1.46v-2.49c0-.81,.66-1.46,1.46-1.46s1.46,.66,1.46,1.46v2.49c0,.81-.66,1.46-1.46,1.46Z"/></g></g></g></svg>