<?xml version="1.0" encoding="UTF-8"?><svg xmlns="http://www.w3.org/2000/svg" viewBox="0 0 66 69.98"><defs><style>.d{fill:none;stroke:white;stroke-miterlimit:10;stroke-width:2.5px;}</style></defs><g id="a"/><g id="b"><g id="c"><g><path class="d" d="M43.26,64.83c0,2.15-1.76,3.9-3.9,3.9H5.15c-2.15,0-3.9-1.76-3.9-3.9V11.97c0-2.15,1.76-3.9,3.9-3.9h2.39"/><path class="d" d="M36.97,8.07h2.39c2.15,0,3.9,1.76,3.9,3.9v20.26"/><path class="d" d="M33.71,10.16s0-.1,0-.15c0-2.16-3.98-3.96-9.25-4.36,.33-.46,.52-1.01,.52-1.62,0-1.54-1.25-2.79-2.79-2.79s-2.79,1.25-2.79,2.79c0,.61,.19,1.17,.52,1.63-5.21,.42-9.12,2.21-9.12,4.35,0,.05,0,.1,0,.15"/><line class="d" x1="33.71" y1="10.16" x2="10.8" y2="10.16"/><path class="d" d="M17.27,22.25v1.15c0,1.87-1.53,3.4-3.4,3.4h-3.4c-1.87,0-3.4-1.53-3.4-3.4v-3.4c0-1.87,1.53-3.4,3.4-3.4h3.4"/><line class="d" x1="22.43" y1="19.25" x2="37.43" y2="19.25"/><line class="d" x1="22.2" y1="23.47" x2="32.25" y2="23.47"/><polyline class="d" points="10.01 20.63 12.12 22.6 18.38 16.75"/><path class="d" d="M17.27,38.94v1.15c0,1.87-1.53,3.4-3.4,3.4h-3.4c-1.87,0-3.4-1.53-3.4-3.4v-3.4c0-1.87,1.53-3.4,3.4-3.4h3.4"/><line class="d" x1="22.43" y1="35.95" x2="34.68" y2="35.95"/><line class="d" x1="22.2" y1="40.17" x2="27.7" y2="40.21"/><polyline class="d" points="10.01 37.32 12.12 39.3 18.38 33.44"/><path class="d" d="M13.87,50h-3.4c-.06,0-.12,0-.17,0-1.79,.09-3.22,1.58-3.22,3.39v3.4c0,1.52,1.01,2.81,2.39,3.24h0c.2,.06,.42,.11,.64,.13,.07,0,.13,.01,.2,.02,.06,0,.12,0,.17,0h3.4c1.87,0,3.4-1.53,3.4-3.4v-3.4c0-1.87-1.53-3.4-3.4-3.4Z"/><line class="d" x1="22.43" y1="52.65" x2="27.83" y2="52.65"/><line class="d" x1="22.2" y1="56.86" x2="28.09" y2="56.86"/><path class="d" d="M53.95,47.09l-2.31-.82c-1.49-.53-2.15-2.13-1.48-3.56l1.05-2.21c-.61-.76-1.3-1.46-2.06-2.06l-2.21,1.05c-1.43,.68-3.03,.02-3.56-1.48l-.82-2.3c-.48-.05-.97-.08-1.46-.08s-.98,.03-1.46,.08l-.82,2.3c-.53,1.49-2.13,2.15-3.56,1.48l-2.21-1.05c-.76,.61-1.46,1.3-2.06,2.06l1.05,2.21c.68,1.43,.02,3.03-1.48,3.56l-2.31,.82c-.05,.48-.08,.97-.08,1.46s.03,.98,.08,1.46l2.31,.82c1.49,.53,2.15,2.13,1.48,3.56l-1.05,2.21c.61,.76,1.3,1.46,2.06,2.06l2.21-1.05c1.43-.68,3.03-.02,3.56,1.48l.82,2.31c.48,.05,.97,.08,1.46,.08s.98-.03,1.46-.08l.82-2.31c.53-1.49,2.13-2.15,3.56-1.48l2.21,1.05c.76-.61,1.46-1.3,2.06-2.06l-1.05-2.21c-.68-1.43-.02-3.03,1.48-3.56l2.31-.82c.05-.48,.08-.97,.08-1.46s-.03-.98-.08-1.46Z"/><path class="d" d="M47.63,48.54c0,3.6-2.92,6.52-6.52,6.52s-6.52-2.92-6.52-6.52,2.92-6.52,6.52-6.52,6.52,2.92,6.52,6.52Z"/><path class="d" d="M45.69,36.51l.61-.22c1.17-.42,1.69-1.68,1.16-2.8l-.83-1.74c.48-.6,1.02-1.14,1.62-1.62l1.74,.83c1.12,.53,2.38,.01,2.8-1.16l.64-1.81c.38-.04,.76-.06,1.15-.06s.77,.02,1.15,.06l.64,1.81c.42,1.17,1.68,1.69,2.8,1.16l1.74-.83c.6,.48,1.14,1.02,1.62,1.62l-.83,1.74c-.53,1.12-.01,2.38,1.16,2.8l1.81,.64c.04,.38,.06,.76,.06,1.15s-.02,.77-.06,1.15l-1.81,.64c-1.17,.42-1.69,1.68-1.16,2.8l.83,1.74c-.48,.6-1.02,1.14-1.62,1.62l-1.74-.83c-1.12-.53-2.38-.01-2.8,1.16l-.16,.44"/><path class="d" d="M52.78,42.88c.56,.21,1.17,.33,1.81,.33,2.83,0,5.12-2.29,5.12-5.12s-2.29-5.12-5.12-5.12c-2.12,0-3.95,1.29-4.72,3.14"/></g></g></g></svg>