<svg width="82" height="56" viewBox="0 0 82 56" fill="none" xmlns="http://www.w3.org/2000/svg">
<path d="M0.516602 46.0994C0.516602 45.5231 0.516602 44.9469 0.516602 44.3706C1.0416 43.6023 1.81861 43.3718 2.78461 43.4102C3.58261 43.4487 4.38061 43.4102 5.24161 43.4102C5.24161 42.9877 5.24161 42.6803 5.24161 42.373C5.24161 28.9274 5.24161 15.4817 5.24161 2.03606C5.24161 0.441785 5.72462 0 7.48862 0C29.6857 0 51.9037 0 74.1008 0C75.9488 0 76.4108 0.422577 76.4108 2.1513C76.4108 15.5777 76.4108 28.985 76.4108 42.4114C76.4108 42.7187 76.4108 43.0261 76.4108 43.4102C77.3558 43.4102 78.2168 43.4294 79.0568 43.4102C80.0228 43.3718 80.7578 43.6599 81.1358 44.5051C81.1358 45.0429 81.1358 45.5615 81.1358 46.0994C81.0938 46.157 81.0308 46.2146 81.0308 46.2722C79.8128 51.8426 75.5918 54.9927 69.3968 54.9927C53.3947 54.9927 37.3927 54.9927 21.3907 54.9927C18.1356 54.9927 14.8806 55.0119 11.6256 54.9927C6.54362 54.9543 2.23861 51.9578 0.894603 47.54C0.747602 47.0598 0.642602 46.5796 0.516602 46.0994ZM14.7546 8.73967C14.7546 20.3029 14.7546 31.8086 14.7546 43.3718C32.1427 43.3718 49.5097 43.3718 66.8978 43.3718C66.8978 31.8086 66.8978 20.3029 66.8978 8.73967C49.5097 8.73967 32.1427 8.73967 14.7546 8.73967ZM73.2188 2.93883C51.6097 2.93883 30.0427 2.93883 8.43362 2.93883C8.43362 16.4229 8.43362 29.8878 8.43362 43.3526C9.48362 43.3526 10.4916 43.3526 11.5626 43.3526C11.5626 42.9877 11.5626 42.6803 11.5626 42.373C11.5626 30.8674 11.5626 19.3809 11.5626 7.87531C11.5626 6.24262 12.0456 5.80084 13.8516 5.80084C31.8277 5.80084 49.8037 5.80084 67.7798 5.80084C69.5858 5.80084 70.0688 6.24262 70.0688 7.89452C70.0688 19.4194 70.0688 30.9442 70.0688 42.469C70.0688 42.7764 70.0688 43.0645 70.0688 43.391C71.1818 43.391 72.1688 43.391 73.1978 43.391C73.2188 29.8878 73.2188 16.4613 73.2188 2.93883ZM77.7968 46.3683C53.1217 46.3683 28.4887 46.3683 3.83461 46.3683C3.91861 46.6756 3.98161 46.9061 4.06561 47.1174C5.17861 50.2291 8.20262 52.1115 12.0456 52.1115C31.1347 52.1115 50.2027 52.1115 69.2918 52.1115C69.6068 52.1115 69.9218 52.1115 70.2368 52.1115C73.9748 51.977 76.9988 49.6913 77.7968 46.3683Z" fill="white"/>
<path d="M38.3797 34.715C35.8597 34.715 33.3397 34.715 30.8197 34.715C29.6437 34.715 28.9717 34.1988 28.9717 33.2811C28.9717 32.4016 29.6647 31.8472 30.8197 31.8472C35.9017 31.8472 41.0047 31.8472 46.0867 31.8472C47.0947 31.8472 47.7457 32.306 47.8717 33.0516C47.9977 33.7399 47.5777 34.4282 46.8427 34.6385C46.5697 34.715 46.2757 34.715 45.9817 34.715C43.4827 34.715 40.9417 34.715 38.3797 34.715Z" fill="white"/>
<path d="M29.5393 19.5543C31.0723 20.9564 32.5423 22.2625 33.9702 23.5878C34.5372 24.1064 34.6842 24.7019 34.2852 25.3549C33.9282 25.9504 33.3192 26.1809 32.6262 26.0272C32.2902 25.9504 31.9543 25.7583 31.7023 25.5278C29.8963 23.9144 28.1323 22.2817 26.3473 20.6491C25.5703 19.9192 25.5493 19.1509 26.3263 18.4402C28.1113 16.7884 29.9173 15.1365 31.7233 13.5039C32.4792 12.8316 33.3822 12.8124 34.0332 13.4078C34.7262 14.0225 34.6842 14.8484 33.9072 15.5783C32.4793 16.9036 31.0303 18.1905 29.5393 19.5543Z" fill="white"/>
<path d="M52.1979 19.6493C50.6439 18.2279 49.2159 16.9793 47.8719 15.6732C47.5149 15.3274 47.1789 14.7512 47.2209 14.3094C47.2419 13.906 47.7039 13.4258 48.1239 13.1569C48.6279 12.8304 49.2789 12.9456 49.7199 13.349C51.6729 15.0969 53.6049 16.8449 55.4949 18.6504C56.0829 19.2075 56.0619 19.9758 55.4529 20.5328C53.5839 22.2808 51.6939 24.0095 49.7829 25.719C49.1529 26.2952 48.1659 26.2184 47.5989 25.6422C47.0109 25.0659 46.9899 24.2592 47.6409 23.6445C48.8799 22.4728 50.1609 21.3204 51.4209 20.1871C51.6309 19.995 51.8829 19.8605 52.1979 19.6493Z" fill="white"/>
<path d="M42.4332 11.6207C43.5042 11.6399 44.1552 12.4659 43.8822 13.5415C43.3152 15.9041 42.7482 18.2667 42.1602 20.6293C41.7192 22.454 41.2782 24.2788 40.8162 26.1036C40.5642 27.1216 39.7872 27.6594 38.8842 27.4481C37.9602 27.2368 37.5192 26.4877 37.7712 25.4697C38.7792 21.3016 39.7872 17.1334 40.8162 12.9845C41.0472 12.0433 41.5722 11.6015 42.4332 11.6207Z" fill="white"/>
<path d="M37.6026 40.4959C36.3636 40.4959 35.1456 40.515 33.9066 40.4959C32.8146 40.4768 32.1426 39.9225 32.1636 39.0624C32.1846 38.2406 32.8356 37.6481 33.8856 37.6481C36.4056 37.629 38.9256 37.629 41.4456 37.6481C42.5166 37.6481 43.2096 38.2597 43.2096 39.1007C43.1886 39.9416 42.5166 40.4959 41.4036 40.4959C40.1226 40.4959 38.8626 40.4959 37.6026 40.4959Z" fill="white"/>
<path d="M56.6289 34.7154C55.3689 34.7154 54.1089 34.7154 52.8489 34.7154C51.8199 34.7154 51.1269 34.1418 51.1059 33.3387C51.0849 32.5165 51.7989 31.8664 52.8489 31.8664C55.3689 31.8473 57.8889 31.8473 60.4089 31.8664C61.48 31.8664 62.173 32.4783 62.152 33.3387C62.131 34.1609 61.459 34.7154 60.4089 34.7154C59.1489 34.7154 57.8889 34.7154 56.6289 34.7154Z" fill="white"/>
<path d="M24.2255 40.4959C23.1965 40.4959 22.1885 40.515 21.1595 40.4959C20.1515 40.4768 19.5215 39.9416 19.5005 39.1198C19.4795 38.2788 20.1095 37.6481 21.1385 37.6481C23.1755 37.629 25.2335 37.629 27.2705 37.6481C28.2785 37.6672 28.9715 38.2979 28.9505 39.1007C28.9295 39.9225 28.2575 40.4768 27.2075 40.4959C26.2205 40.4959 25.2335 40.4959 24.2255 40.4959Z" fill="white"/>
<path d="M49.4882 40.4768C48.9422 40.4768 48.3962 40.4959 47.8502 40.4768C47.0312 40.4195 46.4222 39.8652 46.3802 39.158C46.3382 38.4698 46.8842 37.7435 47.6822 37.7053C48.9002 37.6288 50.1392 37.6288 51.3572 37.7053C52.2182 37.7626 52.7222 38.4507 52.6592 39.2153C52.5962 39.9416 52.0082 40.4577 51.1472 40.4959C50.6012 40.515 50.0342 40.4768 49.4882 40.4768Z" fill="white"/>
<path d="M22.6303 34.6944C22.1053 34.6944 21.5803 34.7135 21.0553 34.6944C20.1733 34.6562 19.5643 34.121 19.5013 33.3755C19.4593 32.6109 20.0053 31.9227 20.8453 31.8845C22.0423 31.808 23.2603 31.808 24.4573 31.8845C25.3183 31.9418 25.8433 32.6491 25.7803 33.3946C25.7173 34.1209 25.1083 34.6562 24.2683 34.6944C23.7223 34.7135 23.1763 34.6944 22.6303 34.6944Z" fill="white"/>
<path d="M59.0018 40.4771C58.4348 40.4771 57.8468 40.5153 57.2798 40.4771C56.5028 40.4197 55.9358 39.8654 55.8728 39.1773C55.8308 38.4701 56.2928 37.782 57.0698 37.7247C58.3298 37.6291 59.6318 37.6291 60.8918 37.7055C61.7108 37.7629 62.1939 38.451 62.1309 39.1964C62.0679 39.9037 61.5008 40.4389 60.7028 40.4771C60.1568 40.5153 59.5688 40.4771 59.0018 40.4771Z" fill="white"/>
</svg>
