<svg width="701" height="457" viewBox="0 0 701 457" fill="none" xmlns="http://www.w3.org/2000/svg">
<path d="M460.044 420.435C462.578 423.876 464.087 427.964 464.395 432.226C464.703 436.489 463.798 440.752 461.785 444.521C459.796 448.266 456.83 451.404 453.202 453.6C449.575 455.797 445.421 456.972 441.18 457H23.274C19.0332 456.972 14.8789 455.797 11.2515 453.6C7.62397 451.404 4.65836 448.266 2.6689 444.521C0.655659 440.752 -0.249221 436.489 0.0589251 432.226C0.367071 427.964 1.87565 423.876 4.41018 420.435C36.8583 374.04 82.7377 338.695 135.876 319.155C104.727 298.463 81.0663 268.293 68.3969 233.11C55.7274 197.926 54.7221 159.599 65.5296 123.8C76.3371 88.0004 98.3832 56.6315 128.405 34.3352C158.428 12.039 194.83 0 232.227 0C269.623 0 306.026 12.039 336.049 34.3352C366.071 56.6315 388.117 88.0004 398.924 123.8C409.732 159.599 408.727 197.926 396.057 233.11C383.388 268.293 359.727 298.463 328.577 319.155C381.716 338.695 427.596 374.04 460.044 420.435ZM696.857 420.435C664.225 374.096 618.274 338.774 565.101 319.155C596.349 298.542 620.108 268.392 632.844 233.191C645.58 197.991 646.611 159.619 635.786 123.785C624.96 87.9505 602.855 56.5681 572.759 34.3057C542.664 12.0433 506.185 0.0904488 468.75 0.22518C452.773 0.309919 436.873 2.45577 421.445 6.60958C417.822 7.69796 414.51 9.6347 411.784 12.2591C409.059 14.8835 406.998 18.12 405.774 21.7C404.606 25.2506 404.313 29.0307 404.919 32.719C405.526 36.4073 407.014 39.8946 409.257 42.8846C435.504 78.1489 450.583 120.468 452.549 164.384C454.514 208.299 443.276 251.796 420.285 289.264C417.336 294.243 416.328 300.134 417.452 305.81C418.577 311.485 421.755 316.547 426.379 320.026C435.085 326.797 443.502 333.762 451.628 340.92L453.079 342.371C484.056 371.035 509.187 405.429 527.083 443.651C528.919 447.645 531.865 451.027 535.57 453.394C539.275 455.761 543.582 457.012 547.978 457H677.703C681.944 456.972 686.098 455.797 689.726 453.6C693.353 451.404 696.319 448.266 698.308 444.521C700.297 440.759 701.214 436.523 700.958 432.275C700.702 428.027 699.283 423.931 696.857 420.435Z" fill="#428ED3"/>
</svg>
