<svg width="121" height="121" viewBox="0 0 121 121" fill="none" xmlns="http://www.w3.org/2000/svg">
<rect width="121" height="121" rx="20" fill="#FFF2F8"/>
<path d="M51.7529 78.7289C51.4137 78.7289 51.0437 78.6364 50.7354 78.4822C48.3612 77.2797 46.3262 75.4914 44.8462 73.2714C43.6129 71.4214 43.6129 69.0472 44.8462 67.1972C46.3262 64.9772 48.3612 63.1889 50.7354 62.0172C51.8762 61.4314 53.2637 61.9247 53.8496 63.0656C54.4354 64.2064 53.9729 65.5939 52.8012 66.1797C51.1362 67.0122 49.7179 68.2764 48.7004 69.8181C48.5154 70.0956 48.5154 70.4656 48.7004 70.7739C49.7179 72.3156 51.1362 73.5797 52.8012 74.4122C53.9421 74.9981 54.4046 76.3856 53.8496 77.5264C53.4179 78.2664 52.5854 78.7289 51.7529 78.7289Z" fill="#D01936"/>
<path d="M70.895 78.7288C70.0317 78.7288 69.23 78.2663 68.8292 77.4647C68.2434 76.3238 68.7059 74.9363 69.8775 74.3505C71.5425 73.518 72.9609 72.2538 73.9784 70.7122C74.1634 70.4347 74.1634 70.0647 73.9784 69.7563C72.9609 68.2147 71.5425 66.9505 69.8775 66.118C68.7367 65.5322 68.2742 64.1447 68.8292 63.0038C69.415 61.863 70.8025 61.4005 71.9434 61.9555C74.3175 63.158 76.3525 64.9463 77.8325 67.1663C79.0659 69.0163 79.0659 71.3905 77.8325 73.2405C76.3525 75.4605 74.3175 77.2488 71.9434 78.4205C71.5734 78.6363 71.2342 78.7288 70.895 78.7288Z" fill="#D01936"/>
<path d="M70.25 94.1458H51.75C35.0075 94.1458 27.8542 86.9925 27.8542 70.25V51.75C27.8542 35.0075 35.0075 27.8541 51.75 27.8541H70.25C86.9925 27.8541 94.1458 35.0075 94.1458 51.75V70.25C94.1458 86.9925 86.9925 94.1458 70.25 94.1458ZM51.75 32.4791C37.5358 32.4791 32.4792 37.5358 32.4792 51.75V70.25C32.4792 84.4641 37.5358 89.5208 51.75 89.5208H70.25C84.4642 89.5208 89.5208 84.4641 89.5208 70.25V51.75C89.5208 37.5358 84.4642 32.4791 70.25 32.4791H51.75Z" fill="#D01936"/>
<path d="M30.8773 51.01C29.6131 51.01 28.5648 49.9616 28.5648 48.6975C28.5648 47.4333 29.5823 46.385 30.8773 46.385L90.139 46.3541C91.4032 46.3541 92.4515 47.4025 92.4515 48.6666C92.4515 49.9308 91.434 50.9791 90.139 50.9791L30.8773 51.01Z" fill="#D01936"/>
</svg>
