<?xml version="1.0" encoding="UTF-8"?><svg xmlns="http://www.w3.org/2000/svg" viewBox="0 0 236.42 188.43"><defs><style>.d{fill:#606161;}.e{fill:#1c75bc;}</style></defs><g id="a"/><g id="b"><g id="c"><g><path class="e" d="M209.51,43.26H103.95c-14.84,0-27.1,10.94-27.1,24.38,0,0-.12,22.73,0,23.84,1.51,13.56,12.75,24.97,27.41,25.9,.64,.04,60.08,0,60.08,0,17.98,0,32.61-14.63,32.61-32.61v-20.22h-13.04v20.22c0,10.79-8.78,19.56-19.56,19.56h-60.08c-7.6-.88-13.7-6.23-15.2-13.54v-23.16c0-7.44,6.68-13.5,14.89-13.5h105.56c8.21,0,14.89,6.06,14.89,13.5v60.36c0,7.62-6.91,13.5-14.89,13.5h-8.27l7.76,23.16-23.03-23.16H98.16c-3.82,0-6.93,2.43-6.93,5.44s3.11,5.45,6.93,5.45h84.99l29.77,29.93c10.12,10.17,14.67,7.36,10.11-6.24l-8.11-24.19c12.25-2.28,21.5-12.12,21.5-23.89v-60.36c0-13.45-12.07-24.38-26.91-24.38Z"/><path class="d" d="M164.34,0H32.61C14.63,0,0,14.63,0,32.61V104.34c0,13.38,8.11,24.9,19.66,29.92l-11.52,35.6c-4.42,13.65,.16,16.41,10.17,6.14l38.05-39.05s17.14,0,17.18,0c3.67-.26,6.56-3.07,6.56-6.51s-2.89-6.28-6.56-6.53c-.17-.01-17.98,0-17.98,0l-33.51,34.39,10.56-34.39c-10.58,0-19.56-8.63-19.56-19.56V32.61c0-10.79,8.78-19.56,19.56-19.56H164.34c9.93,0,19.56,7.59,19.56,20.54h13.04c0-20.29-15.62-33.58-32.61-33.58Z"/></g></g></g></svg>