<svg width="45" height="45" viewBox="0 0 45 45" fill="none" xmlns="http://www.w3.org/2000/svg">
<path d="M43.5938 22.5C43.5938 10.8506 34.1494 1.40625 22.5 1.40625C11.1523 1.40625 1.90055 10.3683 1.42805 21.6C1.42242 21.7378 1.42102 21.8777 1.4182 22.0163C1.41469 22.178 1.40625 22.3383 1.40625 22.5V22.571C1.40625 34.1817 10.8506 43.5938 22.5 43.5938C34.1494 43.5938 43.5938 34.1817 43.5938 22.571L43.5923 22.5366L43.5938 22.5ZM26.7117 41.7312C26.3426 41.5308 25.9882 41.2024 25.8441 40.7552C25.5832 39.9452 25.785 39.3166 26.0845 38.5854C26.3236 37.9997 26.0023 37.3233 26.1612 36.7102C26.4713 35.517 26.8453 34.2239 26.73 32.9421C26.6583 32.1553 26.4839 32.1195 25.9017 31.6652C25.2879 31.1836 25.2879 30.5023 24.8773 29.8934C24.5053 29.34 25.5066 27.2377 25.2274 27.1097C24.9145 26.9655 24.203 27.154 23.978 26.8552C23.7361 26.5331 23.5673 26.1527 23.2348 25.9031C23.0203 25.7421 22.0718 25.2035 21.8187 25.2415C20.5439 25.432 19.163 24.1889 18.3495 23.3782C17.7891 22.822 17.5556 22.1984 17.145 21.555C16.7977 21.0101 16.2717 20.963 16.0137 20.2873C15.743 19.5813 15.904 18.6771 15.8217 17.9346C15.7324 17.1366 15.3359 16.882 14.8402 16.2717C13.7798 14.9618 13.3896 13.0071 11.378 13.0071C10.2973 13.0071 10.3739 15.3612 9.50344 15.0455C8.51906 14.689 6.99609 16.3751 7.01789 16.148C7.1332 14.9709 8.34187 14.3986 8.46 14.0477C8.84602 12.896 6.73523 13.1716 7.00594 12.2112C7.13812 11.7387 8.48109 11.3948 8.20336 11.1129C8.11969 11.0271 7.09242 10.3064 7.14305 10.2705C7.33359 10.137 8.16188 10.5602 7.98187 10.0104C7.92141 9.82758 7.82367 9.65953 7.73086 9.49008C8.15777 9.00529 8.60831 8.54183 9.08086 8.10141C9.79383 8.04305 10.5335 8.08734 10.8014 8.13938C12.5002 8.47406 13.0908 9.33398 14.7895 8.69766C15.6066 8.3925 18.618 8.92195 19.0498 9.77836C19.2846 10.2466 20.1593 9.495 20.5003 9.44438C20.8659 9.38953 21.6921 9.95273 21.9438 9.6075C22.6069 8.69977 21.5191 8.32289 22.8037 9.0218C23.6651 9.49078 25.3484 7.42852 24.8154 9.85219C24.4308 11.5995 23.0175 11.6381 21.9811 12.7765C20.9609 13.8973 23.9998 14.2024 24.0778 15.2149C24.3028 18.1301 25.8574 14.9773 25.4412 13.9409C24.6361 11.9334 26.3573 12.4847 27.0506 13.7602C27.4352 14.4682 27.7277 13.872 28.1988 13.6252C28.5806 13.4262 28.6826 14.5041 28.7648 14.6918C29.0355 15.3155 29.925 15.5018 29.7745 16.3048C29.6072 17.19 28.9779 16.9242 28.3627 17.074C27.6757 17.2406 28.4737 17.8186 28.3739 18.0295C28.2656 18.2602 27.4373 18.3558 27.2166 18.4866C26.5669 18.8691 26.9641 19.6151 26.4558 20.0159C26.107 20.2915 25.7555 20.1122 25.688 20.6283C25.6085 21.2365 24.4877 21.432 24.6333 22.0134C24.6734 22.173 24.9961 23.3655 24.7929 23.4288C24.6994 23.4591 23.9604 22.3917 23.7586 22.2848C23.3592 22.0732 21.5438 22.2462 21.3103 23.4478C21.1591 24.2248 22.4093 25.4517 22.7278 24.3816C23.1223 23.0646 23.31 25.1487 23.2151 25.2302C23.4035 25.3948 24.506 24.9595 24.1791 25.7224C24.0405 26.0452 24.3148 26.8868 24.8041 26.6273C25.0088 26.5191 25.5361 26.8453 25.6282 26.6702C25.7606 26.4686 25.9395 26.3017 26.1499 26.1837C26.6428 25.8954 27.3804 26.1661 27.9204 26.1977C28.2502 26.2167 30.953 27.6912 30.9677 27.9872C31.0268 29.0946 33.0701 28.9505 33.3837 29.3463C34.2267 30.4193 33.9673 29.8744 33.352 31.249C33.042 31.9409 33.312 32.7895 32.561 33.2909C32.1996 33.5313 31.7587 33.4111 31.4374 33.7514C31.1477 34.0587 31.2616 34.4257 31.0859 34.7808C30.8742 35.2034 28.0301 37.7592 27.8423 38.3773C27.7488 38.6873 26.9002 38.9573 27.6159 39.2548C28.0322 39.3771 26.6941 40.642 27.3375 41.1659C27.4943 41.2931 27.597 41.4007 27.6743 41.497C27.353 41.5828 27.0345 41.6609 26.7117 41.7312ZM25.027 2.97914C24.9996 3.08109 25.0411 3.20133 25.2176 3.31875C25.6155 3.58242 25.1037 4.16812 24.5545 3.79055C24.0068 3.41297 22.7749 3.96 22.86 4.24336C22.9437 4.52672 23.3241 4.63922 23.9119 4.41352C24.4983 4.18711 24.7402 4.44727 24.8386 4.71586C24.9061 4.89797 24.8386 4.99922 24.8196 5.24461C24.802 5.49 24.1193 5.31984 23.5519 5.35852C22.983 5.39648 22.3777 5.24461 22.3952 4.92328C22.4142 4.60266 21.7898 4.01695 21.4172 3.77227C21.0452 3.52758 21.5803 2.99883 22.0739 3.39469C22.5654 3.79125 22.5851 3.31945 23.1532 3.16898C23.4759 3.0832 23.3466 2.95453 23.2369 2.83219C23.8416 2.85328 24.4378 2.90391 25.027 2.97914ZM27.4999 9.21516C27.9253 9.33047 28.6643 9.86836 28.6643 10.1229C28.6643 10.3781 28.3289 10.6973 28.1805 10.6608C27.1097 10.3999 26.2069 9.34313 25.7098 8.76445C24.8421 7.75547 24.897 8.62031 23.5223 8.18367C23.1708 8.07117 22.6132 6.98063 22.9823 6.44273C23.3515 5.90484 23.7776 5.81977 24.1179 5.9625C24.4582 6.10312 25.4524 5.50898 25.6809 6.21703C25.9073 6.92508 26.5324 7.82859 27.1012 8.07047C27.6708 8.31094 27.0731 9.09984 27.4999 9.21516ZM27.8409 12.5009C28.0111 12.8405 26.8179 12.1043 26.5338 11.7647C26.2512 11.4258 25.8237 10.6601 26.1661 10.3205C26.5064 9.98156 27.27 11.0271 27.6715 11.2556C28.4653 11.7091 27.6708 12.162 27.8409 12.5009ZM21.7983 7.3575C21.8805 7.2443 22.0549 7.52766 22.2103 7.81102C22.3657 8.09438 22.1513 8.49375 21.7983 8.43328C21.4453 8.37422 21.6007 7.63453 21.7983 7.3575ZM21.7983 4.50844C21.7983 4.50844 22.1309 5.31984 21.7983 5.18766C21.4657 5.05547 21.4495 4.71586 21.7983 4.50844ZM21.8658 7.07484C21.7709 6.84914 21.7491 5.92172 21.9797 5.64047C22.32 5.22563 22.8698 6.03703 22.5 6.35766C22.1309 6.67898 21.96 7.30195 21.8658 7.07484ZM17.5929 8.06977C16.9748 8.02547 16.9615 7.49109 16.8757 7.20773C16.7899 6.92438 16.278 7.74563 15.7605 7.20773C15.243 6.66984 15.8815 5.9625 15.7676 5.53711C15.6537 5.11242 16.9882 5.53711 17.1879 5.53711C17.3876 5.53711 17.9269 6.41461 18.0682 6.39984C18.2109 6.38578 18.9773 7.09383 18.9773 6.81047C18.9773 6.52781 19.0941 6.04547 19.6313 5.98922C20.4553 5.90414 19.7163 6.89555 19.6875 7.28156C19.6601 7.66758 20.314 8.33906 20.5538 8.62242C20.7956 8.90578 19.9441 9.10477 19.8014 8.93391C19.6601 8.76375 19.2902 8.93391 18.9773 9.16031C18.6659 9.38672 17.813 8.84883 17.4157 8.67867C17.0177 8.50922 18.2109 8.11336 17.5929 8.06977ZM19.8014 3.60211C20.3505 3.79125 20.6627 3.9607 20.9327 3.60211C21.1936 3.25617 21.3926 4.35656 21.2034 4.6582C21.0136 4.96125 20.6543 4.88602 20.5966 4.6582C20.5404 4.4332 19.2523 3.41297 19.8014 3.60211ZM20.5966 7.01859C20.4082 6.7725 20.3892 6.48984 20.5966 6.28242C20.8055 6.075 20.738 5.82961 21.1092 5.75437C21.292 5.71641 21.3166 5.99906 21.3166 6.26344C21.3166 6.52781 21.5445 6.86742 21.3166 7.28156C21.0895 7.6957 20.7865 7.26328 20.5966 7.01859ZM22.147 2.82164C22.1386 2.87367 22.1041 2.90461 22.0177 2.89617C21.9582 2.88609 21.9016 2.8633 21.8517 2.82938C21.9509 2.82586 22.0479 2.82305 22.147 2.82164ZM17.8516 3.62109C18.2869 3.62109 18.2306 3.915 18.5906 4.12664C18.9506 4.33758 18.7608 3.03539 19.0069 3.52617C19.253 4.01625 19.9835 4.69617 19.632 4.82766C19.3296 4.94227 18.0612 5.43164 17.9473 5.34727C17.8334 5.26289 17.6822 4.9043 17.3784 4.82766C17.0747 4.75242 16.7534 4.03523 16.5445 4.05422C16.4651 4.06125 16.458 3.92484 16.5101 3.74344C16.8753 3.62587 17.2439 3.51918 17.6154 3.42352C17.6562 3.53461 17.718 3.62109 17.8516 3.62109ZM27.3572 24.7324C26.9037 25.2007 26.1225 24.4062 25.5832 24.4343C25.0439 24.4624 24.7732 23.8964 24.3049 23.9534C23.8352 24.0089 24.4329 23.3578 25.0861 23.6988C25.7379 24.0384 27.727 24.3492 27.3572 24.7324ZM36.4486 8.60695C36.3164 8.7757 36.1659 8.89383 36.0218 9.01828C35.5964 9.38672 34.8012 9.35859 34.6873 9.61312C34.5734 9.86766 34.2893 10.6601 33.2951 10.6636C32.3009 10.6664 32.5849 12.162 32.4998 12.5887C32.4148 13.0155 32.1884 13.5204 31.9036 13.152C31.6195 12.7842 31.5056 12.9248 30.6267 11.8491C29.7478 10.7733 30.0853 10.1791 30.3701 9.86766C30.6541 9.55688 30.768 8.82 30.3701 8.9332C29.9721 9.04641 29.745 8.79117 29.8301 8.43891C29.9152 8.08664 30.3412 7.8293 29.8301 7.45313C29.3189 7.07766 29.6023 5.73398 29.205 4.50773C28.807 3.28078 28.267 4.14914 27.3867 4.19625C26.5064 4.24336 26.3637 3.58242 26.7616 3.28008C30.4338 4.09214 33.7959 5.94094 36.4486 8.60695Z" fill="#DD0505"/>
</svg>
