<svg width="24" height="24" viewBox="0 0 24 24" fill="none" xmlns="http://www.w3.org/2000/svg">
<g clip-path="url(#clip0_17_2265)">
<mask id="mask0_17_2265" style="mask-type:alpha" maskUnits="userSpaceOnUse" x="0" y="0" width="23" height="23">
<path d="M0.996094 0.226262V22.6611H22.9824V0.223511H0.996094V0.226262Z" fill="white"/>
</mask>
<g mask="url(#mask0_17_2265)">
<path fill-rule="evenodd" clip-rule="evenodd" d="M8.54854 0.839656C5.78896 1.80169 3.51042 3.79713 2.19283 6.40572C1.74173 7.29798 1.41318 8.24707 1.21609 9.22727C0.722732 11.686 1.06456 14.239 2.18733 16.4813C2.92134 17.9345 3.96024 19.2122 5.23311 20.2273C6.43596 21.1856 7.82363 21.8853 9.3093 22.2826C11.1789 22.7834 13.1681 22.7724 15.0501 22.3431C16.7619 21.9564 18.3447 21.1337 19.6449 19.9549C21.0027 18.7072 21.9726 17.066 22.4857 15.2996C23.047 13.3764 23.1185 11.3197 22.7691 9.34282H12.2161V13.7189H18.3297C18.2077 14.4178 17.9461 15.085 17.5606 15.6806C17.1751 16.2762 16.6736 16.7881 16.086 17.1857C15.339 17.68 14.497 18.0127 13.6138 18.1624C12.7334 18.3137 11.8158 18.3316 10.9354 18.1569C10.0379 17.9729 9.1883 17.6052 8.43986 17.077C7.24137 16.2306 6.34214 15.026 5.87144 13.6364C5.39225 12.2208 5.39225 10.6869 5.87144 9.27129C6.20883 8.27672 6.76549 7.37073 7.50026 6.62032C8.4107 5.68379 9.57668 5.03597 10.8528 4.75763C11.9445 4.52642 13.0766 4.57182 14.1462 4.8897C15.0525 5.16802 15.8806 5.65579 16.5633 6.31354L18.6269 4.25C18.9887 3.88269 19.3684 3.52776 19.7178 3.1467C18.6713 2.17256 17.444 1.41307 16.1052 0.911192C13.6693 0.0229271 11.0022 -0.00232522 8.54991 0.839656" fill="white"/>
</g>
<mask id="mask1_17_2265" style="mask-type:alpha" maskUnits="userSpaceOnUse" x="2" y="0" width="18" height="10">
<path d="M19.7178 0.224731H2.19287V9.26304H19.7192V0.224731H19.7178Z" fill="white"/>
</mask>
<g mask="url(#mask1_17_2265)">
<path fill-rule="evenodd" clip-rule="evenodd" d="M8.54996 0.839713C11.0021 -0.00103782 13.6681 0.022263 16.1053 0.905747C17.4438 1.401 18.6682 2.17139 19.7178 3.14263C19.3684 3.52232 18.9887 3.87862 18.6269 4.24593L16.5634 6.30947C15.8791 5.65376 15.0515 5.16629 14.1463 4.88563C13.0773 4.5643 11.9444 4.5184 10.8529 4.75219C9.58723 5.02458 8.41101 5.68766 7.5003 6.61625C6.76483 7.36451 6.20801 8.26933 5.87148 9.26309C4.64711 8.31249 3.42274 7.36463 2.19287 6.41128C3.50853 3.79998 5.78751 1.80217 8.54858 0.839713" fill="#EA4335"/>
</g>
<path fill-rule="evenodd" clip-rule="evenodd" d="M1.22261 9.22048C1.42071 8.24373 1.74538 7.29175 2.19936 6.39893C3.42372 7.35091 4.64809 8.29738 5.87796 9.25074C5.39538 10.6662 5.39538 12.2017 5.87796 13.6172C4.65359 14.5706 3.42923 15.5225 2.20486 16.469C1.07249 14.2318 0.726486 11.6784 1.22261 9.22048Z" fill="#FBBC05"/>
<path fill-rule="evenodd" clip-rule="evenodd" d="M12.2159 9.33606H22.7688C23.1277 11.3174 23.0307 13.3545 22.4854 15.2928C21.9723 17.0606 21.0024 18.7004 19.6446 19.9495L16.0816 17.1816C16.6691 16.7838 17.1704 16.2717 17.5557 15.6758C17.941 15.0799 18.2023 14.4126 18.3239 13.7135H12.209C12.2159 12.2553 12.2159 10.7943 12.2159 9.33606Z" fill="#4285F4"/>
<path fill-rule="evenodd" clip-rule="evenodd" d="M2.19287 16.4759C3.41724 15.528 4.64161 14.576 5.86598 13.6227C6.33828 15.0122 7.23711 16.2173 8.4344 17.066C9.18383 17.5934 10.0337 17.961 10.9313 18.146C11.8117 18.3262 12.7224 18.3028 13.6084 18.1515C14.492 18.002 15.3345 17.6693 16.0819 17.1747L19.6449 19.9426C18.3614 21.1312 16.7505 21.9388 15.0501 22.3308C13.1682 22.7587 11.1789 22.771 9.30934 22.2703C7.82272 21.8755 6.43456 21.1755 5.23316 20.215C3.9625 19.2019 2.92546 17.9265 2.19287 16.4759Z" fill="#34A853"/>
</g>
<defs>
<clipPath id="clip0_17_2265">
<rect width="22.0111" height="23.3868" fill="white" transform="translate(0.996094 0.164307)"/>
</clipPath>
</defs>
</svg>
