<svg width="1440" height="641" viewBox="0 0 1440 641" fill="none" xmlns="http://www.w3.org/2000/svg">
<path d="M1482 640L-19 640L-39.9999 1.885e-05C88.0422 64.8358 470.668 102.825 961.329 102.826C1353.86 102.826 1472 197.209 1482 244.401L1482 640Z" fill="url(#paint0_linear_291_26)"/>
<path d="M1482 640L-19 640L-39.9999 1.885e-05C88.0422 64.8358 470.668 102.825 961.329 102.826C1353.86 102.826 1472 197.209 1482 244.401L1482 640Z" fill="url(#paint1_linear_291_26)" fill-opacity="0.2" style="mix-blend-mode:hard-light"/>
<circle cx="139" cy="615" r="34.5" stroke="white" stroke-opacity="0.54" stroke-width="9"/>
<path d="M1413.5 585C1413.5 591.599 1410.03 597.877 1403.83 602.646C1397.63 607.42 1388.86 610.5 1379 610.5C1369.14 610.5 1360.37 607.42 1354.17 602.646C1347.97 597.877 1344.5 591.599 1344.5 585C1344.5 578.401 1347.97 572.123 1354.17 567.354C1360.37 562.58 1369.14 559.5 1379 559.5C1388.86 559.5 1397.63 562.58 1403.83 567.354C1410.03 572.123 1413.5 578.401 1413.5 585Z" stroke="white" stroke-opacity="0.54" stroke-width="9"/>
<path d="M1297.5 578C1297.5 585.085 1289.81 592.5 1278 592.5C1266.19 592.5 1258.5 585.085 1258.5 578C1258.5 570.915 1266.19 563.5 1278 563.5C1289.81 563.5 1297.5 570.915 1297.5 578Z" stroke="white" stroke-opacity="0.54" stroke-width="9"/>
<defs>
<linearGradient id="paint0_linear_291_26" x1="721" y1="640" x2="721" y2="7.04601e-05" gradientUnits="userSpaceOnUse">
<stop stop-color="#0380B0"/>
<stop offset="1" stop-color="#00F5C1"/>
</linearGradient>
<linearGradient id="paint1_linear_291_26" x1="721" y1="640" x2="721" y2="-5.93961e-06" gradientUnits="userSpaceOnUse">
<stop stop-color="white"/>
<stop offset="1" stop-color="white" stop-opacity="0"/>
</linearGradient>
</defs>
</svg>
