<svg width="721" height="721" viewBox="0 0 721 721" fill="none" xmlns="http://www.w3.org/2000/svg">
<path d="M566.489 283.228C481.16 283.228 411.989 352.399 411.989 437.728C411.989 460.4 416.869 481.929 425.644 501.322L360.268 566.699L283.464 643.503C283.464 643.615 283.46 643.724 283.46 643.837C283.46 643.873 283.46 643.909 283.46 643.949C283.52 686.465 317.973 720.918 360.489 720.978L437.735 643.732L502.89 578.576C522.287 587.348 543.817 592.232 566.485 592.232C651.814 592.232 720.985 523.061 720.985 437.732C720.985 352.403 651.814 283.232 566.485 283.232L566.489 283.228ZM566.489 515.38C523.603 515.38 488.836 480.614 488.836 437.728C488.836 394.842 523.603 360.076 566.489 360.076C609.375 360.076 644.141 394.842 644.141 437.728C644.141 480.614 609.375 515.38 566.489 515.38Z" fill="#0F7B32"/>
<path d="M293.739 566.499H324.687L395.697 495.489C389.57 477.364 386.246 457.947 386.246 437.749C386.246 417.551 389.529 398.372 395.584 380.339C392.615 378.87 389.976 377.466 387.727 376.138C385.119 369.419 373.126 351.06 371.005 341.384C371.697 334.19 370.663 309.756 374.94 301.057C398.204 273.368 426.404 232.473 430.166 152.894C433.115 90.446 390.338 0.00314331 294.287 0.00314331C294.101 0.00314331 293.92 0.0111902 293.739 0.0152136C293.558 0.0111902 293.377 0.00314331 293.192 0.00314331C197.144 0.00314331 154.363 90.446 157.312 152.894C161.07 232.469 189.275 273.368 212.538 301.057C216.811 309.756 215.785 334.19 216.473 341.384C214.353 351.06 202.359 369.419 199.752 376.138C164.201 397.116 31.1857 437.789 23.686 441.056C16.1863 444.323 3.48027 453.666 0 463.008V566.499H293.739V566.499Z" fill="#0F7B32"/>
</svg>
