<svg width="82" height="82" viewBox="0 0 82 82" fill="none" xmlns="http://www.w3.org/2000/svg">
<path d="M40.9987 6.83301C22.207 6.83301 6.83203 22.208 6.83203 40.9997C6.83203 59.7913 22.207 75.1663 40.9987 75.1663C59.7904 75.1663 75.1654 59.7913 75.1654 40.9997C75.1654 22.208 59.7904 6.83301 40.9987 6.83301ZM40.9987 68.333C25.9312 68.333 13.6654 56.0672 13.6654 40.9997C13.6654 25.9322 25.9312 13.6663 40.9987 13.6663C56.0662 13.6663 68.332 25.9322 68.332 40.9997C68.332 56.0672 56.0662 68.333 40.9987 68.333ZM56.6812 25.898L34.1654 48.4138L25.3162 39.5988L20.4987 44.4163L34.1654 58.083L61.4987 30.7497L56.6812 25.898Z" fill="#00B512"/>
</svg>
