<svg width="82" height="53" viewBox="0 0 82 53" fill="none" xmlns="http://www.w3.org/2000/svg">
<path d="M75.1667 0.770836H30.75C26.9917 0.770836 23.9167 4.33334 23.9167 8.6875V44.3125C23.9167 46.4121 24.6366 48.4258 25.9181 49.9104C27.1996 51.3951 28.9377 52.2292 30.75 52.2292H75.1667C78.9592 52.2292 82 48.7063 82 44.3125V8.6875C82 6.58787 81.2801 4.57424 79.9986 3.08957C78.7171 1.60491 76.979 0.770836 75.1667 0.770836ZM75.1667 44.3125H30.75V15.2979L52.9583 28.4792L75.1667 15.2979V44.3125ZM52.9583 21.7896L30.75 8.6875H75.1667L52.9583 21.7896ZM17.0833 44.3125C17.0833 44.9854 17.1858 45.6188 17.2542 46.2917H3.41667C1.53067 46.2917 0 44.5104 0 42.3333C0 40.1562 1.53067 38.375 3.41667 38.375H17.0833V44.3125ZM10.25 6.70834H17.2542C17.1858 7.38125 17.0833 8.01459 17.0833 8.6875V14.625H10.25C8.37083 14.625 6.83333 12.8438 6.83333 10.6667C6.83333 8.48959 8.37083 6.70834 10.25 6.70834ZM3.41667 26.5C3.41667 24.3229 4.95417 22.5417 6.83333 22.5417H17.0833V30.4583H6.83333C4.95417 30.4583 3.41667 28.6771 3.41667 26.5Z" fill="black"/>
</svg>
